HIERARCHY
ROOT Hip
{
 OFFSET 0.0000 0.0000 0.0000
 CHANNELS 6 Xposition Yposition Zposition Xrotation Yrotation Zrotation
 JOINT LowerSpine
 {
  OFFSET 0.0000 9.5388 -5.1619
  CHANNELS 3 Xrotation Yrotation Zrotation
  JOINT MiddleSpine
  {
   OFFSET 0.0000 8.7049 0.4547
   CHANNELS 3 Xrotation Yrotation Zrotation
   JOINT Chest
   {
    OFFSET 0.0000 10.7713 -2.3976
    CHANNELS 3 Xrotation Yrotation Zrotation
    JOINT Neck
    {
     OFFSET 0.0000 24.2727 -0.5048
     CHANNELS 3 Xrotation Yrotation Zrotation
     JOINT Head
     {
      OFFSET 0.0000 13.7071 3.7283
      CHANNELS 3 Xrotation Yrotation Zrotation
      End Site
      {
       OFFSET 0.0001 19.1523 0.5717
      }
     }
    }
    JOINT LClavicle
    {
     OFFSET 2.4505 23.4243 8.0253
     CHANNELS 3 Xrotation Yrotation Zrotation
     JOINT LShoulder
     {
      OFFSET 14.3163 3.3599 -5.4366
      CHANNELS 3 Xrotation Yrotation Zrotation
      JOINT LForearm
      {
       OFFSET 30.4107 -0.1080 -0.2635
       CHANNELS 3 Xrotation Yrotation Zrotation
       JOINT LHand
       {
        OFFSET 25.3689 0.0736 -0.1519
        CHANNELS 3 Xrotation Yrotation Zrotation
        JOINT LFinger1
        {
         OFFSET 9.8322 0.8599 2.7309
         CHANNELS 3 Xrotation Yrotation Zrotation
         JOINT LFinger11
         {
          OFFSET 3.6778 -0.8968 0.6480
          CHANNELS 3 Xrotation Yrotation Zrotation
          JOINT LFinger12
          {
           OFFSET 2.5107 -0.6125 0.4426
           CHANNELS 3 Xrotation Yrotation Zrotation
           End Site
           {
            OFFSET 1.7866 -0.5333 0.2898
           }
          }
         }
        }
        JOINT LFinger2
        {
         OFFSET 9.9790 0.9930 0.2378
         CHANNELS 3 Xrotation Yrotation Zrotation
         JOINT LFinger21
         {
          OFFSET 4.5474 0.0127 -0.0269
          CHANNELS 3 Xrotation Yrotation Zrotation
          JOINT LFinger22
          {
           OFFSET 2.5205 0.0077 -0.0153
           CHANNELS 3 Xrotation Yrotation Zrotation
           End Site
           {
            OFFSET 2.2640 -0.1599 0.0030
           }
          }
         }
        }
        JOINT LFinger3
        {
         OFFSET 9.4572 0.6626 -2.2373
         CHANNELS 3 Xrotation Yrotation Zrotation
         JOINT LFinger31
         {
          OFFSET 4.1262 -0.2089 -0.2583
          CHANNELS 3 Xrotation Yrotation Zrotation
          JOINT LFinger32
          {
           OFFSET 2.3513 -0.1183 -0.1478
           CHANNELS 3 Xrotation Yrotation Zrotation
           End Site
           {
            OFFSET 2.0790 -0.2556 -0.0983
           }
          }
         }
        }
        JOINT LFinger4
        {
         OFFSET 8.7759 -0.6670 -3.8640
         CHANNELS 3 Xrotation Yrotation Zrotation
         JOINT LFinger41
         {
          OFFSET 2.5380 -0.5293 -0.7006
          CHANNELS 3 Xrotation Yrotation Zrotation
          JOINT LFinger42
          {
           OFFSET 1.8611 -0.3876 -0.5141
           CHANNELS 3 Xrotation Yrotation Zrotation
           End Site
           {
            OFFSET 1.6519 -0.4539 -0.3790
           }
          }
         }
        }
        JOINT LFinger0
        {
         OFFSET 2.0339 -1.5395 1.5419
         CHANNELS 3 Xrotation Yrotation Zrotation
         JOINT LFinger01
         {
          OFFSET 3.7868 -1.2438 2.8551
          CHANNELS 3 Xrotation Yrotation Zrotation
          JOINT LFinger02
          {
           OFFSET 2.4936 -0.8922 1.7966
           CHANNELS 3 Xrotation Yrotation Zrotation
           End Site
           {
            OFFSET 1.8337 -0.6312 1.2556
           }
          }
         }
        }
       }
      }
     }
    }
    JOINT RClavicle
    {
     OFFSET -2.4505 23.4243 8.0253
     CHANNELS 3 Xrotation Yrotation Zrotation
     JOINT RShoulder
     {
      OFFSET -14.3189 3.3605 -5.4375
      CHANNELS 3 Xrotation Yrotation Zrotation
      JOINT RForearm
      {
       OFFSET -30.4107 -0.1080 -0.2635
       CHANNELS 3 Xrotation Yrotation Zrotation
       JOINT RHand
       {
        OFFSET -25.3689 0.0736 -0.1519
        CHANNELS 3 Xrotation Yrotation Zrotation
        JOINT RFinger1
        {
         OFFSET -9.8322 0.8599 2.7309
         CHANNELS 3 Xrotation Yrotation Zrotation
         JOINT RFinger11
         {
          OFFSET -3.6778 -0.8968 0.6480
          CHANNELS 3 Xrotation Yrotation Zrotation
          JOINT RFinger12
          {
           OFFSET -2.5107 -0.6125 0.4426
           CHANNELS 3 Xrotation Yrotation Zrotation
           End Site
           {
            OFFSET -1.7866 -0.5333 0.2898
           }
          }
         }
        }
        JOINT RFinger2
        {
         OFFSET -9.9790 0.9930 0.2378
         CHANNELS 3 Xrotation Yrotation Zrotation
         JOINT RFinger21
         {
          OFFSET -4.5474 0.0127 -0.0269
          CHANNELS 3 Xrotation Yrotation Zrotation
          JOINT RFinger22
          {
           OFFSET -2.5205 0.0077 -0.0153
           CHANNELS 3 Xrotation Yrotation Zrotation
           End Site
           {
            OFFSET -2.2640 -0.1599 0.0030
           }
          }
         }
        }
        JOINT RFinger3
        {
         OFFSET -9.4572 0.6626 -2.2373
         CHANNELS 3 Xrotation Yrotation Zrotation
         JOINT RFinger31
         {
          OFFSET -4.1262 -0.2089 -0.2583
          CHANNELS 3 Xrotation Yrotation Zrotation
          JOINT RFinger32
          {
           OFFSET -2.3513 -0.1183 -0.1478
           CHANNELS 3 Xrotation Yrotation Zrotation
           End Site
           {
            OFFSET -2.0790 -0.2556 -0.0983
           }
          }
         }
        }
        JOINT RFinger4
        {
         OFFSET -8.7759 -0.6670 -3.8640
         CHANNELS 3 Xrotation Yrotation Zrotation
         JOINT RFinger41
         {
          OFFSET -2.5380 -0.5293 -0.7006
          CHANNELS 3 Xrotation Yrotation Zrotation
          JOINT RFinger42
          {
           OFFSET -1.8611 -0.3876 -0.5141
           CHANNELS 3 Xrotation Yrotation Zrotation
           End Site
           {
            OFFSET -1.6519 -0.4539 -0.3790
           }
          }
         }
        }
        JOINT RFinger0
        {
         OFFSET -2.0339 -1.5395 1.5419
         CHANNELS 3 Xrotation Yrotation Zrotation
         JOINT RFinger01
         {
          OFFSET -3.7869 -1.2438 2.8551
          CHANNELS 3 Xrotation Yrotation Zrotation
          JOINT RFinger02
          {
           OFFSET -2.4936 -0.8922 1.7966
           CHANNELS 3 Xrotation Yrotation Zrotation
           End Site
           {
            OFFSET -1.8337 -0.6312 1.2556
           }
          }
         }
        }
       }
      }
     }
    }
   }
  }
 }
 JOINT RThigh
 {
  OFFSET -10.2041 4.3118 -0.8411
  CHANNELS 3 Xrotation Yrotation Zrotation
  JOINT RShin
  {
   OFFSET -0.8165 -44.3834 0.0000
   CHANNELS 3 Xrotation Yrotation Zrotation
   JOINT RFoot
   {
    OFFSET 0.0000 -43.5818 0.0000
    CHANNELS 3 Xrotation Yrotation Zrotation
    JOINT RToe
    {
     OFFSET 0.0000 -4.7900 10.0166
     CHANNELS 3 Xrotation Yrotation Zrotation
     End Site
     {
      OFFSET 0.0000 0.0000 6.7197
     }
    }
   }
  }
 }
 JOINT LThigh
 {
  OFFSET 10.2041 4.3121 -0.8411
  CHANNELS 3 Xrotation Yrotation Zrotation
  JOINT LShin
  {
   OFFSET 0.8166 -44.3837 0.0000
   CHANNELS 3 Xrotation Yrotation Zrotation
   JOINT LFoot
   {
    OFFSET 0.0000 -43.5818 0.0000
    CHANNELS 3 Xrotation Yrotation Zrotation
    JOINT LToe
    {
     OFFSET 0.0000 -4.7900 10.0166
     CHANNELS 3 Xrotation Yrotation Zrotation
     End Site
     {
      OFFSET 0.0000 0.0000 6.7197
     }
    }
   }
  }
 }
}
MOTION
Frames: 4
Frame Time: 0.0333333000
 74.4507 96.9060 -18.8018 11.476130 -11.849700 2.400330 -2.879196 -0.145582 1.091262 -2.879196 -0.145582 1.091262 -2.879196 -0.145582 1.091262 -8.637817 0.494588 -1.224251 -3.665489 -0.216282 2.854311 0.000000 0.000000 -0.946836 1.832469 7.114053 -3.951019 -1.486459 -14.956110 1.803518 0.000000 0.000000 0.000000 0.000000 0.000000 0.000000 0.000000 0.000000 0.000000 0.000000 0.000000 0.000000 0.000000 0.000000 0.000000 0.000000 0.000000 0.000000 0.000000 0.000000 0.000000 0.000000 0.000000 0.000000 0.000000 0.000000 0.000000 0.000000 0.000000 0.000000 0.000000 0.000000 0.000000 0.000000 0.000000 0.000000 0.000000 0.000000 0.000000 0.000000 0.000000 0.000000 0.000000 0.000000 0.000000 0.000000 0.000000 0.000000 0.000000 0.000000 -2.364729 -1.521548 -4.143025 -3.481900 -4.035046 18.589680 -4.882470 0.000000 0.000000 0.000000 0.000000 0.000000 0.000000 0.000000 0.000000 0.000000 0.000000 0.000000 0.000000 0.000000 0.000000 0.000000 0.000000 0.000000 0.000000 0.000000 0.000000 0.000000 0.000000 0.000000 0.000000 0.000000 0.000000 0.000000 0.000000 0.000000 0.000000 0.000000 0.000000 0.000000 0.000000 0.000000 0.000000 0.000000 0.000000 0.000000 0.000000 0.000000 0.000000 0.000000 0.000000 0.000000 0.000000 0.000000 0.000000 -11.089090 -0.516522 7.456180 2.683326 -0.042442 -1.954622 10.652820 3.715059 1.353952 0.000000 0.000000 0.000000 -11.855710 -9.076708 -0.555355 6.259740 -8.752464 0.585251 2.829717 12.123650 5.396682 0.000000 0.000000 0.000000
 74.9722 97.4834 -18.7548 11.477140 -11.939130 2.962818 -3.051853 0.010628 1.029302 -3.051853 0.010628 1.029302 -3.051853 0.010628 1.029302 -7.671832 0.807150 -2.255685 -2.508884 -0.106340 1.761589 0.000000 0.000000 -1.266463 2.063460 6.410847 -5.246133 -3.325695 -15.405340 4.179252 0.000000 0.000000 0.000000 0.000000 0.000000 0.000000 0.000000 0.000000 0.000000 0.000000 0.000000 0.000000 0.000000 0.000000 0.000000 0.000000 0.000000 0.000000 0.000000 0.000000 0.000000 0.000000 0.000000 0.000000 0.000000 0.000000 0.000000 0.000000 0.000000 0.000000 0.000000 0.000000 0.000000 0.000000 0.000000 0.000000 0.000000 0.000000 0.000000 0.000000 0.000000 0.000000 0.000000 0.000000 0.000000 0.000000 0.000000 0.000000 0.000000 0.000000 -2.620524 -1.597571 -3.763340 -3.894092 -3.114793 18.158340 -4.203079 0.000000 0.000000 0.000000 0.000000 0.000000 0.000000 0.000000 0.000000 0.000000 0.000000 0.000000 0.000000 0.000000 0.000000 0.000000 0.000000 0.000000 0.000000 0.000000 0.000000 0.000000 0.000000 0.000000 0.000000 0.000000 0.000000 0.000000 0.000000 0.000000 0.000000 0.000000 0.000000 0.000000 0.000000 0.000000 0.000000 0.000000 0.000000 0.000000 0.000000 0.000000 0.000000 0.000000 0.000000 0.000000 0.000000 0.000000 0.000000 -10.750600 -0.437134 6.761512 1.254990 -0.190436 -2.065899 5.660991 2.304977 0.964272 0.000000 0.000000 0.000000 -11.994350 -5.277597 -0.862818 6.036314 -4.806591 1.056298 1.815083 7.037004 3.227339 0.000000 0.000000 0.000000
 75.6000 97.8526 -18.6247 11.481940 -11.681200 3.172865 -3.219040 0.056293 0.955615 -3.219040 0.056293 0.955615 -3.219040 0.056293 0.955615 -6.500926 0.800780 -2.381421 -2.072203 -0.040058 0.837251 0.000000 0.000000 -1.449418 0.925913 5.588951 -5.810682 -3.672633 -15.735760 5.424792 0.000000 0.000000 0.000000 0.000000 0.000000 0.000000 0.000000 0.000000 0.000000 0.000000 0.000000 0.000000 0.000000 0.000000 0.000000 0.000000 0.000000 0.000000 0.000000 0.000000 0.000000 0.000000 0.000000 0.000000 0.000000 0.000000 0.000000 0.000000 0.000000 0.000000 0.000000 0.000000 0.000000 0.000000 0.000000 0.000000 0.000000 0.000000 0.000000 0.000000 0.000000 0.000000 0.000000 0.000000 0.000000 0.000000 0.000000 0.000000 0.000000 0.000000 -2.513703 -1.247510 -3.349107 -3.967121 -1.766561 17.438920 -4.279180 0.000000 0.000000 0.000000 0.000000 0.000000 0.000000 0.000000 0.000000 0.000000 0.000000 0.000000 0.000000 0.000000 0.000000 0.000000 0.000000 0.000000 0.000000 0.000000 0.000000 0.000000 0.000000 0.000000 0.000000 0.000000 0.000000 0.000000 0.000000 0.000000 0.000000 0.000000 0.000000 0.000000 0.000000 0.000000 0.000000 0.000000 0.000000 0.000000 0.000000 0.000000 0.000000 0.000000 0.000000 0.000000 0.000000 0.000000 0.000000 -10.457250 -0.381740 6.273312 0.203242 -0.851813 -2.399521 2.365347 1.822444 0.827741 0.000000 0.000000 0.000000 -11.799720 -2.061213 -1.167536 5.305157 -0.848705 1.880201 0.490384 2.098171 0.998290 0.000000 0.000000 0.000000
 76.2624 97.9180 -18.5709 11.594540 -11.051590 3.007999 -3.392945 -0.024160 0.900266 -3.392945 -0.024160 0.900266 -3.392945 -0.024160 0.900266 -5.333619 0.579619 -1.795534 -2.154313 -0.013029 0.268852 0.000000 0.000000 -1.464553 -1.165919 4.832469 -5.765677 -2.642093 -16.080700 5.602345 0.000000 0.000000 0.000000 0.000000 0.000000 0.000000 0.000000 0.000000 0.000000 0.000000 0.000000 0.000000 0.000000 0.000000 0.000000 0.000000 0.000000 0.000000 0.000000 0.000000 0.000000 0.000000 0.000000 0.000000 0.000000 0.000000 0.000000 0.000000 0.000000 0.000000 0.000000 0.000000 0.000000 0.000000 0.000000 0.000000 0.000000 0.000000 0.000000 0.000000 0.000000 0.000000 0.000000 0.000000 0.000000 0.000000 0.000000 0.000000 0.000000 0.000000 -2.132053 -0.598516 -2.979754 -3.666515 -0.248649 16.487010 -5.105168 0.000000 0.000000 0.000000 0.000000 0.000000 0.000000 0.000000 0.000000 0.000000 0.000000 0.000000 0.000000 0.000000 0.000000 0.000000 0.000000 0.000000 0.000000 0.000000 0.000000 0.000000 0.000000 0.000000 0.000000 0.000000 0.000000 0.000000 0.000000 0.000000 0.000000 0.000000 0.000000 0.000000 0.000000 0.000000 0.000000 0.000000 0.000000 0.000000 0.000000 0.000000 0.000000 0.000000 0.000000 0.000000 0.000000 0.000000 0.000000 -10.372740 -0.358133 6.053670 -0.380878 -1.855292 -2.811449 0.971624 2.231011 1.039132 0.000000 0.000000 0.000000 -11.491770 -0.428592 -1.420644 4.274726 1.940731 2.804497 -0.840660 -1.124348 -0.563308 0.000000 0.000000 0.000000
